<?xml version="1.0" ?><svg viewBox="0 0 64 64" xmlns="http://www.w3.org/2000/svg"><g data-name="29-qr code" id="_29-qr_code"><path d="M7,17H1V4A2.99952,2.99952,0,0,1,4,1H17V7H7Z" style="fill:#7bace6"/><path d="M57,17h6V4a2.99952,2.99952,0,0,0-3-3H47V7H57Z" style="fill:#7bace6"/><path d="M7,47H1V60a2.99952,2.99952,0,0,0,3,3H17V57H7Z" style="fill:#7bace6"/><path d="M57,47h6V60a2.99952,2.99952,0,0,1-3,3H47V57H57Z" style="fill:#7bace6"/><rect height="14" style="fill:#a8d7e4" width="14" x="11" y="11"/><rect height="6" style="fill:#7bace6" width="6" x="15" y="15"/><rect height="14" style="fill:#a8d7e4" width="14" x="11" y="39"/><rect height="6" style="fill:#7bace6" width="6" x="15" y="43"/><rect height="14" style="fill:#a8d7e4" width="14" x="39" y="11"/><rect height="6" style="fill:#7bace6" width="6" x="43" y="15"/><path d="M32,35H11V29H29V11h6V32A2.99952,2.99952,0,0,1,32,35Z" style="fill:#a8d7e4"/><path d="M50,53H29V47H47V29h6V50A2.99952,2.99952,0,0,1,50,53Z" style="fill:#a8d7e4"/><rect height="4" style="fill:#7bace6" width="4" x="39" y="39"/><rect height="4" style="fill:#7bace6" width="4" x="39" y="29"/><rect height="4" style="fill:#7bace6" width="4" x="29" y="39"/></g></svg>